# xmcd
#
# Track frame offsets: 
#        150
#        22545
#        37265
#        53885
#        73715
#        88337
#        108187
#        124437
#        143755
#        160472
#
# Disc length: 2354 seconds
#
# Revision: 0
# Processed by: cddbd v1.5.1PL0 Copyright (c) Steve Scherf et al.
# Submitted via: ExactAudioCopy v0.95b3
#
DISCID=8b09300a
DTITLE=Willie Dixon - I Know What The Blues Is
DYEAR=1994
DGENRE=Blues
TTITLE0=I Know Wha The Blues Is
TTITLE1=You Better Hear Me
TTITLE2=I Am So Sorry
TTITLE3=LA Shuffle
TTITLE4=Leave Well Enough Alone
TTITLE5=Going Back To Mississippi
TTITLE6=Somebody Help Me Please
TTITLE7=Keep On Loving Me Baby
TTITLE8=Where Did Our Love Go
TTITLE9=Let Me Keep My Heart
EXTD=Wukkue (Dee) Dixon\nProducers: Warren Burrell Jr. and John Crowel
EXTD=l\nAt Buma Music Productions\nMulti-track digital recording\n2156
EXTD=Thousand Oaks Dr., Jackson, MS 39212\nEngineered, mixed, recorde
EXTD=d and arranged by Warren Burrell Jr.\nManufactured and printed by
EXTD=Disc Makers, Philadelphia, U.S.A.
EXTT0=
EXTT1=
EXTT2=
EXTT3=
EXTT4=
EXTT5=
EXTT6=
EXTT7=
EXTT8=
EXTT9=
PLAYORDER=
